<?xml version="1.0" encoding="UTF-8" standalone="no"?>
<!DOCTYPE svg PUBLIC "-//W3C//DTD SVG 1.1//EN" "http://www.w3.org/Graphics/SVG/1.1/DTD/svg11.dtd">
<svg version="1.1" xmlns="http://www.w3.org/2000/svg" xmlns:xlink="http://www.w3.org/1999/xlink" preserveAspectRatio="xMidYMid meet" viewBox="0 0 640 640" width="640" height="640"><defs><path d="M640 473.15C316.4 533.81 172.19 376.1 207.39 0L640 0C639.88 186.31 639.88 344.02 640 473.15Z" id="b4FCYloN6"></path><path d="M640 455.14C395.09 398.68 274.3 246.97 277.64 0L640 0C639.27 152.67 639.27 304.38 640 455.14Z" id="b2QXB36Sow"></path></defs><g><g><g><g><filter id="shadow1688358" x="193.21" y="-9" width="456.79" height="504.79" filterUnits="userSpaceOnUse" primitiveUnits="userSpaceOnUse"><feFlood></feFlood><feComposite in2="SourceAlpha" operator="in"></feComposite><feGaussianBlur stdDeviation="1"></feGaussianBlur><feOffset dx="1" dy="1" result="afterOffset"></feOffset><feFlood flood-color="#000000" flood-opacity="0.5"></feFlood><feComposite in2="afterOffset" operator="in"></feComposite><feMorphology operator="dilate" radius="1"></feMorphology><feComposite in2="SourceAlpha" operator="out"></feComposite></filter><path d="M640 473.15C316.4 533.81 172.19 376.1 207.39 0L640 0C639.88 186.31 639.88 344.02 640 473.15Z" id="atIPfMtzk" fill="white" fill-opacity="1" filter="url(#shadow1688358)"></path></g><use xlink:href="#b4FCYloN6" opacity="1" fill="#00c3ff" fill-opacity="1"></use></g><g><g><filter id="shadow8261537" x="268.57" y="-9" width="381.43" height="474.14" filterUnits="userSpaceOnUse" primitiveUnits="userSpaceOnUse"><feFlood></feFlood><feComposite in2="SourceAlpha" operator="in"></feComposite><feGaussianBlur stdDeviation="1"></feGaussianBlur><feOffset dx="1" dy="1" result="afterOffset"></feOffset><feFlood flood-color="#000000" flood-opacity="0.5"></feFlood><feComposite in2="afterOffset" operator="in"></feComposite><feMorphology operator="dilate" radius="1"></feMorphology><feComposite in2="SourceAlpha" operator="out"></feComposite></filter><path d="M640 455.14C395.09 398.68 274.3 246.97 277.64 0L640 0C639.27 152.67 639.27 304.38 640 455.14Z" id="e3FJg7EOpR" fill="white" fill-opacity="1" filter="url(#shadow8261537)"></path></g><use xlink:href="#b2QXB36Sow" opacity="1" fill="#004eff" fill-opacity="1"></use></g></g></g></svg>