<?xml version="1.0" encoding="UTF-8"?>
<!DOCTYPE svg PUBLIC "-//W3C//DTD SVG 1.1//EN" "http://www.w3.org/Graphics/SVG/1.1/DTD/svg11.dtd">
<svg version="1.2" width="88.19mm" height="88.19mm" viewBox="0 0 8819 8819" preserveAspectRatio="xMidYMid" fill-rule="evenodd" stroke-width="28.222" stroke-linejoin="round" xmlns="http://www.w3.org/2000/svg" xmlns:ooo="http://xml.openoffice.org/svg/export" xmlns:xlink="http://www.w3.org/1999/xlink" xmlns:presentation="http://sun.com/xmlns/staroffice/presentation" xmlns:smil="http://www.w3.org/2001/SMIL20/" xmlns:anim="urn:oasis:names:tc:opendocument:xmlns:animation:1.0" xml:space="preserve">
 <defs class="ClipPathGroup">
  <clipPath id="presentation_clip_path" clipPathUnits="userSpaceOnUse">
   <rect x="0" y="0" width="8819" height="8819"/>
  </clipPath>
  <clipPath id="presentation_clip_path_shrink" clipPathUnits="userSpaceOnUse">
   <rect x="8" y="8" width="8802" height="8802"/>
  </clipPath>
 </defs>
 <defs class="TextShapeIndex">
  <g ooo:slide="id1" ooo:id-list="id3 id4 id5 id6 id7 id8 id9 id10 id11 id12 id13 id14"/>
 </defs>
 <defs class="EmbeddedBulletChars">
  <g id="bullet-char-template-57356" transform="scale(0.00048828125,-0.00048828125)">
   <path d="M 580,1141 L 1163,571 580,0 -4,571 580,1141 Z"/>
  </g>
  <g id="bullet-char-template-57354" transform="scale(0.00048828125,-0.00048828125)">
   <path d="M 8,1128 L 1137,1128 1137,0 8,0 8,1128 Z"/>
  </g>
  <g id="bullet-char-template-10146" transform="scale(0.00048828125,-0.00048828125)">
   <path d="M 174,0 L 602,739 174,1481 1456,739 174,0 Z M 1358,739 L 309,1346 659,739 1358,739 Z"/>
  </g>
  <g id="bullet-char-template-10132" transform="scale(0.00048828125,-0.00048828125)">
   <path d="M 2015,739 L 1276,0 717,0 1260,543 174,543 174,936 1260,936 717,1481 1274,1481 2015,739 Z"/>
  </g>
  <g id="bullet-char-template-10007" transform="scale(0.00048828125,-0.00048828125)">
   <path d="M 0,-2 C -7,14 -16,27 -25,37 L 356,567 C 262,823 215,952 215,954 215,979 228,992 255,992 264,992 276,990 289,987 310,991 331,999 354,1012 L 381,999 492,748 772,1049 836,1024 860,1049 C 881,1039 901,1025 922,1006 886,937 835,863 770,784 769,783 710,716 594,584 L 774,223 C 774,196 753,168 711,139 L 727,119 C 717,90 699,76 672,76 641,76 570,178 457,381 L 164,-76 C 142,-110 111,-127 72,-127 30,-127 9,-110 8,-76 1,-67 -2,-52 -2,-32 -2,-23 -1,-13 0,-2 Z"/>
  </g>
  <g id="bullet-char-template-10004" transform="scale(0.00048828125,-0.00048828125)">
   <path d="M 285,-33 C 182,-33 111,30 74,156 52,228 41,333 41,471 41,549 55,616 82,672 116,743 169,778 240,778 293,778 328,747 346,684 L 369,508 C 377,444 397,411 428,410 L 1163,1116 C 1174,1127 1196,1133 1229,1133 1271,1133 1292,1118 1292,1087 L 1292,965 C 1292,929 1282,901 1262,881 L 442,47 C 390,-6 338,-33 285,-33 Z"/>
  </g>
  <g id="bullet-char-template-9679" transform="scale(0.00048828125,-0.00048828125)">
   <path d="M 813,0 C 632,0 489,54 383,161 276,268 223,411 223,592 223,773 276,916 383,1023 489,1130 632,1184 813,1184 992,1184 1136,1130 1245,1023 1353,916 1407,772 1407,592 1407,412 1353,268 1245,161 1136,54 992,0 813,0 Z"/>
  </g>
  <g id="bullet-char-template-8226" transform="scale(0.00048828125,-0.00048828125)">
   <path d="M 346,457 C 273,457 209,483 155,535 101,586 74,649 74,723 74,796 101,859 155,911 209,963 273,989 346,989 419,989 480,963 531,910 582,859 608,796 608,723 608,648 583,586 532,535 482,483 420,457 346,457 Z"/>
  </g>
  <g id="bullet-char-template-8211" transform="scale(0.00048828125,-0.00048828125)">
   <path d="M -4,459 L 1135,459 1135,606 -4,606 -4,459 Z"/>
  </g>
  <g id="bullet-char-template-61548" transform="scale(0.00048828125,-0.00048828125)">
   <path d="M 173,740 C 173,903 231,1043 346,1159 462,1274 601,1332 765,1332 928,1332 1067,1274 1183,1159 1299,1043 1357,903 1357,740 1357,577 1299,437 1183,322 1067,206 928,148 765,148 601,148 462,206 346,322 231,437 173,577 173,740 Z"/>
  </g>
 </defs>
 <defs class="TextEmbeddedBitmaps"/>
 <g>
  <g id="id2" class="Master_Slide">
   <g id="bg-id2" class="Background"/>
   <g id="bo-id2" class="BackgroundObjects"/>
  </g>
 </g>
 <g class="SlideGroup">
  <g>
   <g id="container-id1">
    <g id="id1" class="Slide" clip-path="url(#presentation_clip_path)">
     <g class="Page">
      <g class="com.sun.star.drawing.ClosedBezierShape">
       <g id="id3">
        <rect class="BoundingBox" stroke="none" fill="none" x="0" y="0" width="8821" height="8821"/>
        <path fill="rgb(235,235,235)" stroke="none" d="M 8820,4410 C 8820,5222 8636,5912 8230,6615 7824,7318 7318,7824 6615,8230 5912,8636 5222,8820 4410,8820 3598,8820 2908,8636 2205,8230 1502,7824 997,7318 591,6615 185,5912 0,5222 0,4410 0,3598 185,2908 591,2205 997,1502 1502,997 2205,591 2908,185 3598,0 4410,0 5222,0 5912,185 6615,591 7318,997 7824,1502 8230,2205 8636,2908 8820,3598 8820,4410 Z"/>
       </g>
      </g>
      <g class="com.sun.star.drawing.ClosedBezierShape">
       <g id="id4">
        <rect class="BoundingBox" stroke="none" fill="none" x="5292" y="4851" width="884" height="884"/>
        <path fill="rgb(0,147,238)" stroke="none" d="M 6175,5292 C 6175,5374 6156,5443 6116,5513 6075,5584 6025,5634 5954,5675 5884,5715 5815,5734 5733,5734 5652,5734 5583,5715 5513,5675 5442,5634 5392,5584 5351,5513 5311,5443 5292,5374 5292,5292 5292,5211 5311,5142 5351,5072 5392,5001 5442,4951 5513,4910 5583,4870 5652,4851 5733,4851 5815,4851 5884,4870 5954,4910 6025,4951 6075,5001 6116,5072 6156,5142 6175,5211 6175,5292 Z"/>
       </g>
      </g>
      <g class="com.sun.star.drawing.PolyPolygonShape">
       <g id="id5">
        <rect class="BoundingBox" stroke="none" fill="none" x="2275" y="6133" width="4242" height="885"/>
        <path fill="rgb(74,186,255)" stroke="none" d="M 4395,7016 L 2275,7016 2275,6133 6516,6133 6516,7016 4395,7016 Z"/>
       </g>
      </g>
      <g class="com.sun.star.drawing.ClosedBezierShape">
       <g id="id6">
        <rect class="BoundingBox" stroke="none" fill="none" x="6074" y="6133" width="884" height="885"/>
        <path fill="rgb(74,186,255)" stroke="none" d="M 6957,6574 C 6957,6656 6938,6725 6898,6795 6857,6866 6807,6916 6736,6957 6666,6997 6597,7016 6515,7016 6434,7016 6365,6997 6295,6957 6224,6916 6174,6866 6133,6795 6093,6725 6074,6656 6074,6574 6074,6493 6093,6424 6133,6354 6174,6283 6224,6233 6295,6192 6365,6152 6434,6133 6515,6133 6597,6133 6666,6152 6736,6192 6807,6233 6857,6283 6898,6354 6938,6424 6957,6493 6957,6574 Z"/>
       </g>
      </g>
      <g class="com.sun.star.drawing.ClosedBezierShape">
       <g id="id7">
        <rect class="BoundingBox" stroke="none" fill="none" x="2205" y="3351" width="885" height="884"/>
        <path fill="rgb(0,147,238)" stroke="none" d="M 3088,3792 C 3088,3874 3069,3943 3029,4013 2988,4084 2938,4134 2867,4175 2797,4215 2728,4234 2646,4234 2565,4234 2496,4215 2426,4175 2355,4134 2305,4084 2264,4013 2224,3943 2205,3874 2205,3792 2205,3711 2224,3642 2264,3572 2305,3501 2355,3451 2426,3410 2496,3370 2565,3351 2646,3351 2728,3351 2797,3370 2867,3410 2938,3451 2988,3501 3029,3572 3069,3642 3088,3711 3088,3792 Z"/>
       </g>
      </g>
      <g class="com.sun.star.drawing.ClosedBezierShape">
       <g id="id8">
        <rect class="BoundingBox" stroke="none" fill="none" x="838" y="2910" width="884" height="884"/>
        <path fill="rgb(0,147,238)" stroke="none" d="M 1721,3351 C 1721,3433 1702,3502 1662,3572 1621,3643 1571,3693 1500,3734 1430,3774 1361,3793 1279,3793 1198,3793 1129,3774 1059,3734 988,3693 938,3643 897,3572 857,3502 838,3433 838,3351 838,3270 857,3201 897,3131 938,3060 988,3010 1059,2969 1129,2929 1198,2910 1279,2910 1361,2910 1430,2929 1500,2969 1571,3010 1621,3060 1662,3131 1702,3201 1721,3270 1721,3351 Z"/>
       </g>
      </g>
      <g class="com.sun.star.drawing.PolyPolygonShape">
       <g id="id9">
        <rect class="BoundingBox" stroke="none" fill="none" x="1893" y="1892" width="5035" height="5035"/>
        <path fill="rgb(0,147,238)" stroke="none" d="M 2205,6614 L 1893,6302 6303,1892 6927,2516 2517,6926 2205,6614 Z"/>
       </g>
      </g>
      <g class="com.sun.star.drawing.ClosedBezierShape">
       <g id="id10">
        <rect class="BoundingBox" stroke="none" fill="none" x="6185" y="1749" width="885" height="885"/>
        <path fill="rgb(0,147,238)" stroke="none" d="M 7068,2190 C 7068,2272 7049,2341 7009,2411 6968,2482 6918,2532 6847,2573 6777,2613 6708,2632 6626,2632 6545,2632 6476,2613 6406,2573 6335,2532 6285,2482 6244,2411 6204,2341 6185,2272 6185,2190 6185,2109 6204,2040 6244,1970 6285,1899 6335,1849 6406,1808 6476,1768 6545,1749 6626,1749 6708,1749 6777,1768 6847,1808 6918,1849 6968,1899 7009,1970 7049,2040 7068,2109 7068,2190 Z"/>
       </g>
      </g>
      <g class="com.sun.star.drawing.ClosedBezierShape">
       <g id="id11">
        <rect class="BoundingBox" stroke="none" fill="none" x="1805" y="6133" width="885" height="885"/>
        <path fill="rgb(0,147,238)" stroke="none" d="M 2688,6574 C 2688,6656 2669,6725 2629,6795 2588,6866 2538,6916 2467,6957 2397,6997 2328,7016 2246,7016 2165,7016 2096,6997 2026,6957 1955,6916 1905,6866 1864,6795 1824,6725 1805,6656 1805,6574 1805,6493 1824,6424 1864,6354 1905,6283 1955,6233 2026,6192 2096,6152 2165,6133 2246,6133 2328,6133 2397,6152 2467,6192 2538,6233 2588,6283 2629,6354 2669,6424 2688,6493 2688,6574 Z"/>
       </g>
      </g>
      <g class="com.sun.star.drawing.PolyPolygonShape">
       <g id="id12">
        <rect class="BoundingBox" stroke="none" fill="none" x="1904" y="1657" width="2961" height="885"/>
        <path fill="rgb(74,186,255)" stroke="none" d="M 3384,2540 L 1905,2540 1905,1657 4864,1657 4864,2540 3384,2540 Z"/>
       </g>
      </g>
      <g class="com.sun.star.drawing.ClosedBezierShape">
       <g id="id13">
        <rect class="BoundingBox" stroke="none" fill="none" x="1403" y="1657" width="884" height="884"/>
        <path fill="rgb(95,100,255)" stroke="none" d="M 2286,2098 C 2286,2180 2267,2249 2227,2319 2186,2390 2136,2440 2065,2481 1995,2521 1926,2540 1844,2540 1763,2540 1694,2521 1624,2481 1553,2440 1503,2390 1462,2319 1422,2249 1403,2180 1403,2098 1403,2017 1422,1948 1462,1878 1503,1807 1553,1757 1624,1716 1694,1676 1763,1657 1844,1657 1926,1657 1995,1676 2065,1716 2136,1757 2186,1807 2227,1878 2267,1948 2286,2017 2286,2098 Z"/>
       </g>
      </g>
      <g class="com.sun.star.drawing.ClosedBezierShape">
       <g id="id14">
        <rect class="BoundingBox" stroke="none" fill="none" x="4445" y="1651" width="885" height="884"/>
        <path fill="rgb(74,186,255)" stroke="none" d="M 5328,2092 C 5328,2174 5309,2243 5269,2313 5228,2384 5178,2434 5107,2475 5037,2515 4968,2534 4886,2534 4805,2534 4736,2515 4666,2475 4595,2434 4545,2384 4504,2313 4464,2243 4445,2174 4445,2092 4445,2011 4464,1942 4504,1872 4545,1801 4595,1751 4666,1710 4736,1670 4805,1651 4886,1651 4968,1651 5037,1670 5107,1710 5178,1751 5228,1801 5269,1872 5309,1942 5328,2011 5328,2092 Z"/>
       </g>
      </g>
     </g>
    </g>
   </g>
  </g>
 </g>
</svg>